<svg width="443" height="261" viewBox="0 0 443 261" fill="none" xmlns="http://www.w3.org/2000/svg">
<g clip-path="url(#clip0_596_1733)">
<path d="M-406.47 130.5C-285.33 130.5 -285.33 0.5 -164.18 0.5H-11.67C109.47 0.5 109.47 130.5 230.62 130.5H373" stroke="#FF4B1C" stroke-miterlimit="10"/>
<path d="M-406.47 130.501C-285.33 130.501 -285.33 12.8809 -164.18 12.8809H-11.67C109.47 12.8809 109.47 130.501 230.62 130.501H373" stroke="#FF4B1C" stroke-miterlimit="10"/>
<path d="M-406.47 130.5C-285.33 130.5 -285.33 25.2598 -164.18 25.2598H-11.67C109.47 25.2598 109.47 130.5 230.62 130.5H373" stroke="#FF4B1C" stroke-miterlimit="10"/>
<path d="M-406.47 130.5C-285.33 130.5 -285.33 37.6504 -164.18 37.6504H-11.67C109.47 37.6504 109.47 130.5 230.62 130.5H373" stroke="#FF4B1C" stroke-miterlimit="10"/>
<path d="M-406.47 130.499C-285.33 130.499 -285.33 50.0293 -164.18 50.0293H-11.67C109.47 50.0293 109.47 130.499 230.62 130.499H373" stroke="#FF4B1C" stroke-miterlimit="10"/>
<path d="M-406.47 130.5C-285.33 130.5 -285.33 62.4102 -164.18 62.4102H-11.67C109.47 62.4102 109.47 130.5 230.62 130.5H373" stroke="#FF4B1C" stroke-miterlimit="10"/>
<path d="M-406.47 130.499C-285.33 130.499 -285.33 74.7891 -164.18 74.7891H-11.67C109.47 74.7891 109.47 130.499 230.62 130.499H373" stroke="#FF4B1C" stroke-miterlimit="10"/>
<path d="M-406.47 130.5C-285.33 130.5 -285.33 87.1699 -164.18 87.1699H-11.67C109.47 87.1699 109.47 130.5 230.62 130.5H373" stroke="#FF4B1C" stroke-miterlimit="10"/>
<path d="M-406.47 130.501C-285.33 130.501 -285.33 99.5508 -164.18 99.5508H-11.67C109.47 99.5508 109.47 130.501 230.62 130.501H373" stroke="#FF4B1C" stroke-miterlimit="10"/>
<path d="M-406.47 130.5C-285.33 130.5 -285.33 111.93 -164.18 111.93H-11.67C109.47 111.93 109.47 130.5 230.62 130.5H373" stroke="#FF4B1C" stroke-miterlimit="10"/>
<path d="M-406.47 130.501C-285.33 130.501 -285.33 124.311 -164.18 124.311H-11.67C109.47 124.311 109.47 130.501 230.62 130.501H373" stroke="#FF4B1C" stroke-miterlimit="10"/>
<path d="M-406.47 130.5C-285.33 130.5 -285.33 136.69 -164.18 136.69H-11.67C109.47 136.69 109.47 130.5 230.62 130.5H373" stroke="#FF4B1C" stroke-miterlimit="10"/>
<path d="M-406.47 130.5C-285.33 130.5 -285.33 149.07 -164.18 149.07H-11.67C109.47 149.07 109.47 130.5 230.62 130.5H373" stroke="#FF4B1C" stroke-miterlimit="10"/>
<path d="M-406.47 130.5C-285.33 130.5 -285.33 161.45 -164.18 161.45H-11.67C109.47 161.45 109.47 130.5 230.62 130.5H373" stroke="#FF4B1C" stroke-miterlimit="10"/>
<path d="M-406.47 130.5C-285.33 130.5 -285.33 173.83 -164.18 173.83H-11.67C109.47 173.83 109.47 130.5 230.62 130.5H373" stroke="#FF4B1C" stroke-miterlimit="10"/>
<path d="M-406.47 130.5C-285.33 130.5 -285.33 186.21 -164.18 186.21H-11.67C109.47 186.21 109.47 130.5 230.62 130.5H373" stroke="#FF4B1C" stroke-miterlimit="10"/>
<path d="M-406.47 130.5C-285.33 130.5 -285.33 198.59 -164.18 198.59H-11.67C109.47 198.59 109.47 130.5 230.62 130.5H373" stroke="#FF4B1C" stroke-miterlimit="10"/>
<path d="M-406.47 130.5C-285.33 130.5 -285.33 210.97 -164.18 210.97H-11.67C109.47 210.97 109.47 130.5 230.62 130.5H373" stroke="#FF4B1C" stroke-miterlimit="10"/>
<path d="M-406.47 130.5C-285.33 130.5 -285.33 223.35 -164.18 223.35H-11.67C109.47 223.35 109.47 130.5 230.62 130.5H373" stroke="#FF4B1C" stroke-miterlimit="10"/>
<path d="M-406.47 130.5C-285.33 130.5 -285.33 235.74 -164.18 235.74H-11.67C109.47 235.74 109.47 130.5 230.62 130.5H373" stroke="#FF4B1C" stroke-miterlimit="10"/>
<path d="M-406.47 130.5C-285.33 130.5 -285.33 248.12 -164.18 248.12H-11.67C109.47 248.12 109.47 130.5 230.62 130.5H373" stroke="#FF4B1C" stroke-miterlimit="10"/>
<path d="M-406.47 130.5C-285.33 130.5 -285.33 260.5 -164.18 260.5H-11.67C109.47 260.5 109.47 130.5 230.62 130.5H373" stroke="#FF4B1C" stroke-miterlimit="10"/>
</g>
<circle cx="17" cy="17" r="17" transform="matrix(-1 0 0 1 383 113)" fill="#FF4B1C"/>
<defs>
<clipPath id="clip0_596_1733">
<rect width="780" height="261" fill="white" transform="matrix(-1 0 0 1 373 0)"/>
</clipPath>
</defs>
</svg>
