<svg width="750" height="2189" viewBox="0 0 750 2189" fill="none" xmlns="http://www.w3.org/2000/svg">
<path opacity="0.2" d="M200 420L200 350L439.5 191.5L200 191.5L200 121.5L549.5 121.5L549.5 191.5L309.5 350L549.5 350L549.5 420L200 420ZM492.5 559.176L405 559.176L405 676.676L349.5 676.676L349.5 559.176L257 559.176L257 691.676L200 691.676L200 489.176L549.5 489.176L549.5 691.676L492.5 691.676L492.5 559.176ZM549 1221.79L200 1124.29L200 1041.79L448.5 976.289L200 907.789L199.5 825.789L549 731.789L549 806.789L278 868.289L549 939.289L549 1017.29L279.5 1084.29L549 1146.29L549 1221.79ZM200 1566L200 1496L439.5 1337.5L200 1337.5L200 1267.5L549.5 1267.5L549.5 1337.5L309.5 1496L549.5 1496L549.5 1566L200 1566ZM266.5 1849.17L266.5 1710.17L200 1687.17L200 1613.67L549.5 1739.17L549.5 1820.67L200 1946.17L200 1872.17L266.5 1849.17ZM322.5 1830.17L468.5 1779.67L322.5 1729.17L322.5 1830.17ZM255.5 2063.08L255.5 2178.08L200 2178.08L200 1993.08L549 1993.08L549 2063.08L255.5 2063.08Z" fill="#031C61"/>
<path opacity="0.2" d="M240.583 17.328V62H231.623V42.992H212.487V62H203.527V17.328H212.487V35.696H231.623V17.328H240.583ZM299.322 24.56V35.76H314.362V42.864H299.322V54.704H316.282V62H290.362V17.264H316.282V24.56H299.322ZM374.345 54.896H389.065V62H365.385V17.328H374.345V54.896ZM444.68 54.896H459.4V62H435.72V17.328H444.68V54.896ZM526.791 62.448C522.609 62.448 518.769 61.4667 515.271 59.504C511.772 57.5413 508.999 54.832 506.951 51.376C504.903 47.8773 503.879 43.9307 503.879 39.536C503.879 35.184 504.903 31.28 506.951 27.824C508.999 24.3253 511.772 21.5947 515.271 19.632C518.769 17.6693 522.609 16.688 526.791 16.688C531.015 16.688 534.855 17.6693 538.311 19.632C541.809 21.5947 544.561 24.3253 546.567 27.824C548.615 31.28 549.639 35.184 549.639 39.536C549.639 43.9307 548.615 47.8773 546.567 51.376C544.561 54.832 541.809 57.5413 538.311 59.504C534.812 61.4667 530.972 62.448 526.791 62.448ZM526.791 54.448C529.479 54.448 531.847 53.8507 533.895 52.656C535.943 51.4187 537.543 49.6693 538.695 47.408C539.847 45.1467 540.423 42.5227 540.423 39.536C540.423 36.5493 539.847 33.9467 538.695 31.728C537.543 29.4667 535.943 27.7387 533.895 26.544C531.847 25.3493 529.479 24.752 526.791 24.752C524.103 24.752 521.713 25.3493 519.623 26.544C517.575 27.7387 515.975 29.4667 514.823 31.728C513.671 33.9467 513.095 36.5493 513.095 39.536C513.095 42.5227 513.671 45.1467 514.823 47.408C515.975 49.6693 517.575 51.4187 519.623 52.656C521.713 53.8507 524.103 54.448 526.791 54.448Z" fill="#031C61"/>
</svg>
