<svg width="443" height="261" viewBox="0 0 443 261" fill="none" xmlns="http://www.w3.org/2000/svg">
<path opacity="0.7" d="M-34.907 113.612C-34.907 55.8386 -47.4636 9 -62.9535 9C-78.4434 9 -91 55.8386 -91 113.612V128C-91 193.723 -62.3734 247 -27.0571 247C8.25934 247 36.8859 193.723 36.8859 128L37.1621 113.612C37.1621 55.8386 24.7934 9 9.54096 9C-5.71143 9 -18.0802 55.8386 -18.0802 113.612V128C-18.0802 193.723 10.1155 247 44.896 247C79.6766 247 107.872 193.723 107.872 128L107.618 113.612C107.618 55.8386 95.0615 9 79.5716 9C64.0817 9 51.5251 55.8386 51.5251 113.612V128C51.5251 193.723 80.1517 247 115.468 247C150.784 247 179.411 193.723 179.411 128L179.687 113.612C179.687 55.8386 167.318 9 152.066 9C136.814 9 124.445 55.8386 124.445 113.612V128C124.445 193.723 152.641 247 187.421 247C222.202 247 250.397 193.723 250.397 128L250.696 113.612C250.696 55.8386 238.139 9 222.649 9C207.159 9 194.603 55.8386 194.603 113.612V128C194.603 193.723 223.229 247 258.546 247C293.862 247 322.489 193.723 322.489 128L322.765 113.612C322.765 55.8386 310.396 9 295.144 9C279.891 9 267.522 55.8386 267.522 113.612V128C267.522 193.723 295.718 247 330.499 247C365.279 247 393.475 193.723 393.475 128L393.221 113.612C393.221 55.8386 380.664 9 365.174 9C349.684 9 337.128 55.8386 337.128 113.612V128C337.128 193.723 365.754 247 401.071 247C436.387 247 465.014 193.723 465.014 128L465.29 113.612C465.29 55.8386 452.921 9 437.669 9C422.416 9 410.048 55.8386 410.048 113.612V128C410.048 193.723 438.243 247 473.024 247C507.804 247 536 193.723 536 128" stroke="#FF4B1C" stroke-miterlimit="10"/>
<path d="M54.373 67.9512C54.373 67.9512 54.0586 72.611 55.6377 74.8482C57.2168 77.0853 61.7127 78.3497 61.7127 78.3497C61.7127 78.3497 57.053 78.0353 54.8158 79.6144C52.5787 81.1935 51.3143 85.6895 51.3143 85.6895C51.3143 85.6895 51.6287 81.0297 50.0496 78.7925C48.4705 76.5554 43.9745 75.291 43.9745 75.291C43.9745 75.291 48.6343 75.6054 50.8715 74.0263C53.1086 72.4472 54.373 67.9512 54.373 67.9512Z" fill="#FF4B1C"/>
<circle cx="5" cy="5" r="5" transform="matrix(-1 0 0 1 273 121)" fill="#FF4B1C"/>
<circle cx="5" cy="5" r="5" transform="matrix(-1 0 0 1 218 11)" fill="#FF4B1C"/>
<path d="M341.793 173.735C341.793 173.735 344.411 179.669 347.796 181.403C351.181 183.137 357.527 181.793 357.527 181.793C357.527 181.793 351.592 184.411 349.858 187.796C348.124 191.181 349.468 197.527 349.468 197.527C349.468 197.527 346.85 191.592 343.465 189.859C340.08 188.125 333.734 189.469 333.734 189.469C333.734 189.469 339.669 186.851 341.403 183.466C343.136 180.08 341.793 173.735 341.793 173.735Z" fill="#FF4B1C"/>
<path d="M126.325 148.023C126.325 148.023 127.208 153.137 129.5 155.138C131.792 157.139 136.978 157.325 136.978 157.325C136.978 157.325 131.864 158.208 129.863 160.5C127.862 162.792 127.676 167.978 127.676 167.978C127.676 167.978 126.793 162.864 124.501 160.863C122.209 158.862 117.023 158.676 117.023 158.676C117.023 158.676 122.137 157.793 124.138 155.501C126.139 153.209 126.325 148.023 126.325 148.023Z" fill="#FF4B1C"/>
</svg>
