<svg width="63" height="54" viewBox="0 0 63 54" fill="none" xmlns="http://www.w3.org/2000/svg">
<path d="M15.3295 2.3506C16.0895 -0.783531 20.5469 -0.783534 21.3069 2.3506L23.398 10.9744C23.6694 12.0933 24.543 12.967 25.662 13.2383L34.2858 15.3295C37.4199 16.0895 37.4199 20.5469 34.2858 21.3069L25.662 23.398C24.543 23.6694 23.6694 24.543 23.398 25.662L21.3069 34.2858C20.5469 37.4199 16.0895 37.4199 15.3295 34.2858L13.2383 25.662C12.967 24.543 12.0933 23.6694 10.9744 23.398L2.3506 21.3069C-0.783531 20.5469 -0.783534 16.0895 2.3506 15.3295L10.9744 13.2383C12.0933 12.967 12.967 12.0933 13.2383 10.9744L15.3295 2.3506Z" fill="#FF4B1C"/>
<path d="M40.4335 32.4465C40.9012 30.5178 43.6442 30.5178 44.1119 32.4465L45.3988 37.7535C45.5658 38.4421 46.1034 38.9797 46.792 39.1467L52.0989 40.4335C54.0276 40.9012 54.0276 43.6442 52.0989 44.1119L46.792 45.3988C46.1034 45.5658 45.5658 46.1034 45.3988 46.792L44.1119 52.0989C43.6442 54.0276 40.9012 54.0276 40.4335 52.0989L39.1467 46.792C38.9797 46.1034 38.4421 45.5658 37.7535 45.3988L32.4465 44.1119C30.5178 43.6442 30.5178 40.9012 32.4465 40.4335L37.7535 39.1467C38.4421 38.9797 38.9797 38.4421 39.1467 37.7535L40.4335 32.4465Z" fill="#FF4B1C"/>
<path d="M55.4395 5.19785C55.7092 4.08574 57.2908 4.08574 57.5605 5.19785L58.3025 8.2579C58.3988 8.65495 58.7088 8.96496 59.1059 9.06124L62.1659 9.80326C63.278 10.0729 63.278 11.6546 62.1659 11.9243L59.1059 12.6663C58.7088 12.7626 58.3988 13.0726 58.3025 13.4696L57.5605 16.5297C57.2908 17.6418 55.7092 17.6418 55.4395 16.5297L54.6975 13.4696C54.6012 13.0726 54.2912 12.7626 53.8941 12.6663L50.8341 11.9243C49.722 11.6546 49.722 10.0729 50.8341 9.80326L53.8941 9.06125C54.2912 8.96497 54.6012 8.65495 54.6975 8.2579L55.4395 5.19785Z" fill="#FF4B1C"/>
</svg>
