<svg width="151" height="20" viewBox="0 0 151 20" fill="none" xmlns="http://www.w3.org/2000/svg">
<g clip-path="url(#clip0_1246_124)">
<path d="M18.504 3.364L15.21 16H11.484L9.468 7.684L7.38 16H3.654L0.45 3.364H3.744L5.562 12.562L7.812 3.364H11.196L13.356 12.562L15.192 3.364H18.504ZM29.3356 10.816C29.3356 11.104 29.3176 11.404 29.2816 11.716H22.3156C22.3636 12.34 22.5616 12.82 22.9096 13.156C23.2696 13.48 23.7076 13.642 24.2236 13.642C24.9916 13.642 25.5256 13.318 25.8256 12.67H29.1016C28.9336 13.33 28.6276 13.924 28.1836 14.452C27.7516 14.98 27.2056 15.394 26.5456 15.694C25.8856 15.994 25.1476 16.144 24.3316 16.144C23.3476 16.144 22.4716 15.934 21.7036 15.514C20.9356 15.094 20.3356 14.494 19.9036 13.714C19.4716 12.934 19.2556 12.022 19.2556 10.978C19.2556 9.934 19.4656 9.022 19.8856 8.242C20.3176 7.462 20.9176 6.862 21.6856 6.442C22.4536 6.022 23.3356 5.812 24.3316 5.812C25.3036 5.812 26.1676 6.016 26.9236 6.424C27.6796 6.832 28.2676 7.414 28.6876 8.17C29.1196 8.926 29.3356 9.808 29.3356 10.816ZM26.1856 10.006C26.1856 9.478 26.0056 9.058 25.6456 8.746C25.2856 8.434 24.8356 8.278 24.2956 8.278C23.7796 8.278 23.3416 8.428 22.9816 8.728C22.6336 9.028 22.4176 9.454 22.3336 10.006H26.1856ZM33.8574 7.378C34.1454 6.91 34.5594 6.532 35.0994 6.244C35.6394 5.956 36.2574 5.812 36.9534 5.812C37.7814 5.812 38.5314 6.022 39.2034 6.442C39.8754 6.862 40.4034 7.462 40.7874 8.242C41.1834 9.022 41.3814 9.928 41.3814 10.96C41.3814 11.992 41.1834 12.904 40.7874 13.696C40.4034 14.476 39.8754 15.082 39.2034 15.514C38.5314 15.934 37.7814 16.144 36.9534 16.144C36.2454 16.144 35.6274 16.006 35.0994 15.73C34.5714 15.442 34.1574 15.064 33.8574 14.596V16H30.7794V2.68H33.8574V7.378ZM38.2494 10.96C38.2494 10.192 38.0334 9.592 37.6014 9.16C37.1814 8.716 36.6594 8.494 36.0354 8.494C35.4234 8.494 34.9014 8.716 34.4694 9.16C34.0494 9.604 33.8394 10.21 33.8394 10.978C33.8394 11.746 34.0494 12.352 34.4694 12.796C34.9014 13.24 35.4234 13.462 36.0354 13.462C36.6474 13.462 37.1694 13.24 37.6014 12.796C38.0334 12.34 38.2494 11.728 38.2494 10.96ZM42.6182 6.568C42.6662 5.284 43.0862 4.294 43.8782 3.598C44.6702 2.902 45.7442 2.554 47.1002 2.554C48.0002 2.554 48.7682 2.71 49.4042 3.022C50.0522 3.334 50.5382 3.76 50.8622 4.3C51.1982 4.84 51.3662 5.446 51.3662 6.118C51.3662 6.91 51.1682 7.558 50.7722 8.062C50.3762 8.554 49.9142 8.89 49.3862 9.07V9.142C50.0702 9.37 50.6102 9.748 51.0062 10.276C51.4022 10.804 51.6002 11.482 51.6002 12.31C51.6002 13.054 51.4262 13.714 51.0782 14.29C50.7422 14.854 50.2442 15.298 49.5842 15.622C48.9362 15.946 48.1622 16.108 47.2622 16.108C45.8222 16.108 44.6702 15.754 43.8062 15.046C42.9542 14.338 42.5042 13.27 42.4562 11.842H45.4442C45.4562 12.37 45.6062 12.79 45.8942 13.102C46.1822 13.402 46.6022 13.552 47.1542 13.552C47.6222 13.552 47.9822 13.42 48.2342 13.156C48.4982 12.88 48.6302 12.52 48.6302 12.076C48.6302 11.5 48.4442 11.086 48.0722 10.834C47.7122 10.57 47.1302 10.438 46.3262 10.438H45.7502V7.936H46.3262C46.9382 7.936 47.4302 7.834 47.8022 7.63C48.1862 7.414 48.3782 7.036 48.3782 6.496C48.3782 6.064 48.2582 5.728 48.0182 5.488C47.7782 5.248 47.4482 5.128 47.0282 5.128C46.5722 5.128 46.2302 5.266 46.0022 5.542C45.7862 5.818 45.6602 6.16 45.6242 6.568H42.6182ZM56.5571 10.96C56.5571 9.928 56.7491 9.022 57.1331 8.242C57.5291 7.462 58.0631 6.862 58.7351 6.442C59.4071 6.022 60.1571 5.812 60.9851 5.812C61.6931 5.812 62.3111 5.956 62.8391 6.244C63.3791 6.532 63.7931 6.91 64.0811 7.378V5.956H67.1591V16H64.0811V14.578C63.7811 15.046 63.3611 15.424 62.8211 15.712C62.2931 16 61.6751 16.144 60.9671 16.144C60.1511 16.144 59.4071 15.934 58.7351 15.514C58.0631 15.082 57.5291 14.476 57.1331 13.696C56.7491 12.904 56.5571 11.992 56.5571 10.96ZM64.0811 10.978C64.0811 10.21 63.8651 9.604 63.4331 9.16C63.0131 8.716 62.4971 8.494 61.8851 8.494C61.2731 8.494 60.7511 8.716 60.3191 9.16C59.8991 9.592 59.6891 10.192 59.6891 10.96C59.6891 11.728 59.8991 12.34 60.3191 12.796C60.7511 13.24 61.2731 13.462 61.8851 13.462C62.4971 13.462 63.0131 13.24 63.4331 12.796C63.8651 12.352 64.0811 11.746 64.0811 10.978ZM70.7539 4.912C70.2139 4.912 69.7699 4.756 69.4219 4.444C69.0859 4.12 68.9179 3.724 68.9179 3.256C68.9179 2.776 69.0859 2.38 69.4219 2.068C69.7699 1.744 70.2139 1.582 70.7539 1.582C71.2819 1.582 71.7139 1.744 72.0499 2.068C72.3979 2.38 72.5719 2.776 72.5719 3.256C72.5719 3.724 72.3979 4.12 72.0499 4.444C71.7139 4.756 71.2819 4.912 70.7539 4.912ZM72.2839 5.956V16H69.2059V5.956H72.2839Z" fill="#FF4B1C"/>
<path d="M94.42 16H91.342L86.194 8.206V16H83.116V3.364H86.194L91.342 11.194V3.364H94.42V16ZM105.939 10.816C105.939 11.104 105.921 11.404 105.885 11.716H98.9192C98.9672 12.34 99.1652 12.82 99.5132 13.156C99.8732 13.48 100.311 13.642 100.827 13.642C101.595 13.642 102.129 13.318 102.429 12.67H105.705C105.537 13.33 105.231 13.924 104.787 14.452C104.355 14.98 103.809 15.394 103.149 15.694C102.489 15.994 101.751 16.144 100.935 16.144C99.9512 16.144 99.0752 15.934 98.3072 15.514C97.5392 15.094 96.9392 14.494 96.5072 13.714C96.0752 12.934 95.8592 12.022 95.8592 10.978C95.8592 9.934 96.0692 9.022 96.4892 8.242C96.9212 7.462 97.5212 6.862 98.2892 6.442C99.0572 6.022 99.9392 5.812 100.935 5.812C101.907 5.812 102.771 6.016 103.527 6.424C104.283 6.832 104.871 7.414 105.291 8.17C105.723 8.926 105.939 9.808 105.939 10.816ZM102.789 10.006C102.789 9.478 102.609 9.058 102.249 8.746C101.889 8.434 101.439 8.278 100.899 8.278C100.383 8.278 99.9452 8.428 99.5852 8.728C99.2372 9.028 99.0212 9.454 98.9372 10.006H102.789ZM121.801 5.956L119.083 16H115.681L114.097 9.484L112.459 16H109.075L106.339 5.956H109.417L110.839 13.138L112.531 5.956H115.789L117.499 13.102L118.903 5.956H121.801ZM128.915 5.848C130.091 5.848 131.027 6.232 131.723 7C132.431 7.756 132.785 8.8 132.785 10.132V16H129.725V10.546C129.725 9.874 129.551 9.352 129.203 8.98C128.855 8.608 128.387 8.422 127.799 8.422C127.211 8.422 126.743 8.608 126.395 8.98C126.047 9.352 125.873 9.874 125.873 10.546V16H122.795V5.956H125.873V7.288C126.185 6.844 126.605 6.496 127.133 6.244C127.661 5.98 128.255 5.848 128.915 5.848ZM134.132 10.96C134.132 9.928 134.324 9.022 134.708 8.242C135.104 7.462 135.638 6.862 136.31 6.442C136.982 6.022 137.732 5.812 138.56 5.812C139.268 5.812 139.886 5.956 140.414 6.244C140.954 6.532 141.368 6.91 141.656 7.378V5.956H144.734V16H141.656V14.578C141.356 15.046 140.936 15.424 140.396 15.712C139.868 16 139.25 16.144 138.542 16.144C137.726 16.144 136.982 15.934 136.31 15.514C135.638 15.082 135.104 14.476 134.708 13.696C134.324 12.904 134.132 11.992 134.132 10.96ZM141.656 10.978C141.656 10.21 141.44 9.604 141.008 9.16C140.588 8.716 140.072 8.494 139.46 8.494C138.848 8.494 138.326 8.716 137.894 9.16C137.474 9.592 137.264 10.192 137.264 10.96C137.264 11.728 137.474 12.34 137.894 12.796C138.326 13.24 138.848 13.462 139.46 13.462C140.072 13.462 140.588 13.24 141.008 12.796C141.44 12.352 141.656 11.746 141.656 10.978ZM149.858 2.68V16H146.78V2.68H149.858Z" fill="#031C61"/>
</g>
<defs>
<clipPath id="clip0_1246_124">
<rect width="151" height="20" fill="white"/>
</clipPath>
</defs>
</svg>
