<svg width="78" height="26" viewBox="0 0 78 26" fill="none" xmlns="http://www.w3.org/2000/svg">
<mask id="mask0_939_147" style="mask-type:luminance" maskUnits="userSpaceOnUse" x="0" y="0" width="78" height="26">
<path d="M78 0H0V26H78V0Z" fill="white"/>
</mask>
<g mask="url(#mask0_939_147)">
<path d="M6.31191 2.29395L5.27044 6.62005L4.0884 2.29395H3.1487L2.11202 6.64428L0.886469 2.29395H0L1.61794 7.77917L2.55772 7.77431L3.70087 3.56463L4.77142 7.77431H5.72093L7.20802 2.29395H6.31191Z" fill="#606060"/>
<path d="M10.0753 3.85566C9.77501 3.69079 9.43593 3.60345 9.05318 3.60345C8.67051 3.60345 8.30234 3.69079 7.99721 3.86052C7.692 4.03026 7.45468 4.2776 7.2851 4.59284C7.11552 4.90808 7.0332 5.27664 7.0332 5.69372C7.0332 6.1108 7.12039 6.47943 7.29482 6.79467C7.46919 7.10991 7.71136 7.35725 8.01657 7.53185C8.32178 7.70644 8.67051 7.7937 9.05804 7.7937C9.53275 7.7937 9.93 7.67249 10.2546 7.43487C10.5743 7.19716 10.7971 6.89164 10.9182 6.51823H10.0123C9.82824 6.8965 9.50853 7.08568 9.05804 7.08568C8.74318 7.08568 8.48156 6.98863 8.26361 6.78981C8.04566 6.59585 7.92939 6.33392 7.90517 6.00896H11.0006C11.0199 5.88775 11.0296 5.7471 11.0296 5.59674C11.0296 5.20388 10.9472 4.85469 10.7777 4.55404C10.613 4.2533 10.3805 4.01567 10.0801 3.8508L10.0753 3.85566ZM7.90517 5.33489C7.9439 5.01965 8.06503 4.7723 8.27333 4.58798C8.48157 4.40367 8.72868 4.31155 9.01445 4.31155C9.33416 4.31155 9.60057 4.40367 9.8186 4.59284C10.0317 4.77708 10.1432 5.02929 10.148 5.33489H7.90517Z" fill="#606060"/>
<path d="M14.9636 3.86048C14.6729 3.69075 14.3484 3.60341 13.9947 3.60341C13.6896 3.60341 13.4134 3.66645 13.1664 3.79259C12.9194 3.91865 12.7256 4.07867 12.5802 4.2727V2.27942H11.7422V7.8131H12.5802V7.13895C12.7207 7.32813 12.9145 7.48814 13.1567 7.60942C13.3989 7.73062 13.6798 7.79366 13.9899 7.79366C14.3435 7.79366 14.6632 7.7064 14.9587 7.52694C15.2493 7.34749 15.4819 7.09528 15.6466 6.77518C15.8113 6.45516 15.8985 6.09139 15.8985 5.68403C15.8985 5.2766 15.8161 4.9129 15.6466 4.59766C15.4819 4.28242 15.2542 4.03507 14.9636 3.86534V3.86048ZM14.8715 6.41635C14.7553 6.62975 14.6051 6.78976 14.4162 6.89646C14.2272 7.00803 14.0238 7.06134 13.8106 7.06134C13.5975 7.06134 13.3989 7.00802 13.21 6.90132C13.021 6.79462 12.8709 6.63453 12.7546 6.42599C12.6384 6.21745 12.5802 5.97497 12.5802 5.69368C12.5802 5.41238 12.6384 5.16989 12.7546 4.96621C12.8709 4.75767 13.021 4.60245 13.21 4.49582C13.3989 4.38912 13.5975 4.33573 13.8106 4.33573C14.0238 4.33573 14.2272 4.38912 14.4162 4.49582C14.6051 4.60245 14.7553 4.75767 14.8715 4.96135C14.9878 5.16503 15.0459 5.40752 15.0459 5.68881C15.0459 5.97011 14.9878 6.21259 14.8715 6.42599V6.41635Z" fill="#606060"/>
<path d="M18.994 4.34545L20.268 2.25519H17.1726L16.6833 3.04082H18.8535L17.686 4.98565C18.1947 4.86923 18.7566 4.87409 19.086 5.06805C19.4154 5.26208 19.5752 5.55788 19.5752 5.96532C19.5752 6.33873 19.4736 6.58608 19.2362 6.76553C19.0085 6.94498 18.7421 7.04683 18.4515 7.04683C17.8992 7.04683 17.531 6.75581 17.2307 6.23689C17.2065 6.17864 17.1484 6.09624 17.1048 5.97982L16.6543 6.69764C16.9449 7.41052 17.5553 7.79851 18.4369 7.79851C19.0085 7.79851 19.4736 7.63364 19.8562 7.30868C20.2389 6.97407 20.4327 6.52783 20.4327 5.96532C20.4327 5.51908 20.2825 5.14566 19.9967 4.84014C19.706 4.53455 19.4009 4.37454 18.9891 4.34545H18.994Z" fill="#606060"/>
<path d="M30.1593 1.43553C30.3579 1.43553 30.5226 1.36764 30.6582 1.22699C30.7939 1.09121 30.8665 0.916613 30.8665 0.717716C30.8665 0.518897 30.7987 0.344304 30.6582 0.203657C30.5226 0.0678711 30.3531 -0.00488281 30.1593 -0.00488281C29.9655 -0.00488281 29.7863 0.0630106 29.6458 0.203657C29.5102 0.339444 29.4375 0.514037 29.4375 0.717716C29.4375 0.921473 29.5053 1.09121 29.6458 1.22699C29.7814 1.36278 29.9558 1.43553 30.1593 1.43553Z" fill="#606060"/>
<path d="M30.5664 2.27942H29.709V7.80824H30.5664V2.27942Z" fill="#606060"/>
<path d="M27.553 3.1427C27.364 2.89535 27.117 2.69167 26.8021 2.5268C26.4873 2.36193 26.124 2.27945 25.7025 2.27945C25.2375 2.27945 24.8112 2.39587 24.4285 2.62378C24.0458 2.85176 23.7406 3.17664 23.5178 3.58886C23.295 4.00116 23.1836 4.47641 23.1836 5.01477C23.1836 5.55306 23.295 6.03325 23.5178 6.45519C23.7406 6.87705 24.041 7.20688 24.4236 7.4445C24.8063 7.68213 25.2229 7.79855 25.6831 7.79855C26.0949 7.79855 26.4631 7.71608 26.7876 7.54634C27.1121 7.37661 27.364 7.16807 27.553 6.91586V7.79369H28.3959V2.26001H27.553V3.1427ZM27.3011 6.02353C27.1364 6.29996 26.9233 6.5085 26.6617 6.65401C26.4 6.79952 26.1143 6.86741 25.8091 6.86741C25.5039 6.86741 25.2278 6.79466 24.9614 6.64915C24.6949 6.50364 24.4818 6.29024 24.3171 6.00895C24.1524 5.72765 24.0749 5.40277 24.0749 5.03414C24.0749 4.66559 24.1572 4.34063 24.3171 4.07391C24.4818 3.80227 24.6949 3.59859 24.9565 3.45794C25.2181 3.31729 25.5039 3.2494 25.8091 3.2494C26.1143 3.2494 26.4 3.32215 26.6617 3.4628C26.9233 3.60831 27.1364 3.81199 27.3011 4.08842C27.4658 4.35999 27.5433 4.68495 27.5433 5.05358C27.5433 5.42214 27.4609 5.7471 27.3011 6.02353Z" fill="#606060"/>
<path d="M13.3165 25.7963H10.3519L3.00821 15.5195V25.7963H0V11.2322H3.34729L10.3519 21.0143V11.2322H13.3165V25.7963Z" fill="black"/>
<path d="M45.9075 13.1576L41.9935 25.7914H38.7382L36.4373 17.4643L34.2089 25.7914H30.9731L27.1172 13.1576H29.7572L32.5426 22.5323L35.0373 13.1576H37.9244L40.4192 22.4887L43.2578 13.1576H45.9027H45.9075Z" fill="black"/>
<path d="M60.5808 16.0287C61.1039 15.0636 61.8113 14.3119 62.7071 13.7735C63.6036 13.2352 64.5965 12.9684 65.6859 12.9684C66.6696 12.9684 67.5221 13.1625 68.2581 13.5456C68.9903 13.9287 69.5759 14.4089 70.0118 14.986V13.1722H72.7684V25.8545H70.0118V23.803C69.5759 24.3947 68.9756 24.8845 68.2249 25.2774C67.4689 25.6702 66.6063 25.8691 65.6427 25.8691C64.5718 25.8691 63.5889 25.5926 62.6978 25.0397C61.8059 24.4868 61.0992 23.7157 60.5808 22.7264C60.0577 21.737 59.8008 20.6167 59.8008 19.3606C59.8008 18.1045 60.0623 16.9938 60.5808 16.0287ZM69.1739 17.508C68.8298 16.9647 68.3846 16.5476 67.8276 16.2615C67.2752 15.9753 66.6742 15.8348 66.0354 15.8348C65.3958 15.8348 64.7948 15.9753 64.2424 16.2519C63.6908 16.5331 63.2402 16.9405 62.8961 17.4789C62.552 18.0172 62.3823 18.6574 62.3823 19.3945C62.3823 20.1317 62.552 20.7816 62.8961 21.3393C63.2402 21.897 63.6908 22.319 64.2524 22.6148C64.8141 22.9058 65.4105 23.0513 66.0354 23.0513C66.6603 23.0513 67.2752 22.9106 67.8276 22.6245C68.3792 22.3384 68.8298 21.9213 69.1739 21.3684C69.518 20.8155 69.6877 20.1705 69.6877 19.4333C69.6877 18.6962 69.518 18.0511 69.1739 17.508Z" fill="black"/>
<path d="M77.9994 9.02557V25.8448H74.9766V9.02557H77.9994Z" fill="black"/>
<path d="M56.0892 13.5601C56.874 13.9724 57.4844 14.5786 57.9252 15.3885C58.3657 16.1936 58.5887 17.1684 58.5887 18.313V25.7333H55.8567V18.701C55.8567 17.5758 55.5952 17.0181 55.0138 16.4312C54.4955 15.9123 54.0305 15.7135 53.052 15.7232C52.0735 15.7328 51.4147 16.0627 50.8479 16.6641C50.2764 17.2655 49.9469 18.2063 49.9518 18.6962V25.7284H46.9727V13.1479H49.695V14.3312C50.1843 13.856 50.6008 13.6184 51.2645 13.3273C51.9282 13.0363 52.6887 12.9442 53.4347 12.9442C54.4229 12.9442 55.3093 13.1479 56.0892 13.5601Z" fill="black"/>
<path d="M23.9739 21.7515C23.4265 23.0852 22.3753 23.6478 21.1498 23.6478C20.1857 23.6478 19.4931 23.4392 18.8294 22.8331C18.1658 22.2268 17.7589 21.509 17.6862 20.5148H26.9191C26.9772 20.1366 27.0112 19.7146 27.0112 19.2441C27.0112 18.0366 26.7544 16.9647 26.2409 16.0336C25.7274 15.1024 25.0105 14.3846 24.0901 13.8706C23.1697 13.3564 22.1185 13.0994 20.9414 13.0994C19.7643 13.0994 18.6356 13.3661 17.6911 13.8948C16.7464 14.4234 16.015 15.1751 15.4966 16.1499C14.9735 17.1248 14.7168 18.2548 14.7168 19.54C14.7168 20.8252 14.9832 21.9552 15.5209 22.9301C16.0586 23.9049 16.7949 24.6614 17.7395 25.1949C18.6841 25.7333 19.7498 26 20.9463 26C22.4092 26 23.6397 25.6314 24.6278 24.899C25.5095 24.2443 26.3281 23.2065 26.7157 21.7515H23.9787H23.9739ZM18.7568 16.1839C19.3332 15.6649 20.0308 15.4079 20.8398 15.4079C21.7359 15.4079 22.4819 15.6698 23.0874 16.1936C23.6929 16.7174 24.003 17.4109 24.0175 18.2791H17.7249C17.8364 17.3964 18.1803 16.698 18.7568 16.1839Z" fill="black"/>
</g>
</svg>
