<svg width="375" height="236" viewBox="0 0 375 236" fill="none" xmlns="http://www.w3.org/2000/svg">
<g opacity="0.2" clip-path="url(#clip0_935_4631)">
<path d="M-190.585 48.4627C-179.829 69.4565 -166.737 89.5186 -148.717 103.53C-124.314 122.507 -87.8449 128.936 -60.7364 108.711C-29.5127 85.4163 -9.08856 60.0254 32.0965 64.8649C61.1319 68.2752 92.3473 87.8665 102.401 117.685C108.37 135.378 109.634 154.72 113.808 173.099C123.822 217.172 153.112 233.331 194.353 219.629C214.048 213.086 236.396 205.431 253.445 216.195C275.8 230.305 277.111 269.371 301.225 279.971C314.399 285.763 329.781 280.759 344.201 277.809C378.549 270.775 385.323 303.31 414.658 305.567C422.016 306.136 429.417 303.209 436.841 302.712C444.507 302.201 458.257 307.242 453.363 317.975" stroke="#FF4B1C" stroke-width="0.197266" stroke-linecap="round" stroke-linejoin="round"/>
<path d="M-191.201 57.9036C-180.511 78.7953 -166.87 97.997 -148.553 111.022C-135.429 120.389 -119.115 126.212 -102.747 126.627C-88.2963 126.981 -73.7691 123.181 -61.122 113.99C-37.8858 97.085 -20.249 78.9017 4.12544 72.4189C12.2123 70.2606 21.0611 69.4238 31.0826 70.2756C60.0298 72.7387 91.0448 90.5108 102.245 119.226C108.944 136.418 110.921 155.605 115.345 174.013C117.608 183.472 120.663 191.753 124.491 198.805C138.192 223.943 161.695 231.596 193.819 224.476C203.992 222.222 215.055 218.483 225.775 216.257C239.697 213.386 253.601 214.129 265.295 221.433C286.396 234.734 288.37 270.962 311.094 281.284C323.495 286.905 337.908 282.737 351.457 280.307C383.548 274.557 390.592 304.412 418.237 306.329C425.191 306.805 432.181 304.078 439.203 303.512C446.452 302.93 459.252 307.346 455.108 316.885" stroke="#FF4B1C" stroke-width="0.197266" stroke-linecap="round" stroke-linejoin="round"/>
<path d="M-191.827 67.3526C-181.21 88.1329 -167.011 106.476 -148.398 118.515C-135.122 127.162 -118.872 132.267 -102.708 132.206C-88.4172 132.143 -74.1078 128.161 -61.5223 119.26C-38.5168 102.955 -20.6119 85.2846 3.46327 78.4744C11.4885 76.1911 20.2316 75.1719 30.0617 75.679C58.9162 77.1781 89.7583 93.1526 102.073 120.759C109.518 137.451 112.187 156.473 116.869 174.911C119.217 184.268 122.257 192.586 125.994 199.763C139.272 225.083 161.702 233.574 193.271 229.307C205.231 227.695 218.22 223.178 230.807 220.409C247.005 216.85 263.458 218.115 277.139 226.664C297.031 239.093 299.613 272.552 320.955 282.59C332.577 288.038 346.03 284.7 358.706 282.799C388.542 278.326 395.861 305.509 421.811 307.075C428.358 307.465 434.941 304.925 441.559 304.298C448.401 303.638 460.242 307.435 456.838 315.785" stroke="#FF4B1C" stroke-width="0.197266" stroke-linecap="round" stroke-linejoin="round"/>
<path d="M-192.454 76.8014C-181.903 97.4796 -167.129 114.92 -148.243 126.008C-134.793 133.907 -118.629 138.321 -102.663 137.795C-88.5327 137.313 -74.4504 133.155 -61.9187 124.547C-39.1439 108.842 -20.971 91.6843 2.80498 84.5467C10.7685 82.1383 19.4153 80.9307 29.0354 81.1053C57.8081 81.6266 88.4833 95.8129 101.904 122.316C110.102 138.511 113.454 157.373 118.402 175.843C120.843 185.1 123.842 193.457 127.504 200.762C140.305 226.294 161.903 236.146 192.721 234.186C206.536 233.301 221.387 227.929 235.831 224.6C254.303 220.36 273.282 222.175 288.966 231.931C307.607 243.536 310.848 274.18 330.81 283.927C341.659 289.204 354.136 286.692 365.948 285.321C393.515 282.113 401.116 306.635 425.384 307.862C431.517 308.165 437.698 305.82 443.916 305.116C450.348 304.385 461.233 307.556 458.577 314.712" stroke="#FF4B1C" stroke-width="0.197266" stroke-linecap="round" stroke-linejoin="round"/>
<path d="M-193.08 86.2441C-182.595 106.82 -167.268 123.384 -148.087 133.494C-134.484 140.666 -118.386 144.369 -102.626 143.375C-88.6551 142.476 -74.7905 138.136 -62.3203 129.819C-39.7686 114.715 -21.3369 98.0761 2.1491 90.6052C10.051 88.0717 18.6031 86.668 28.0131 86.5101C56.7072 86.0383 87.2294 98.4473 101.739 123.852C110.7 139.544 114.768 158.236 119.93 176.752C122.476 185.894 125.435 194.292 129.012 201.731C141.381 227.451 162.179 239.08 192.178 239.027C207.879 238.997 224.557 232.634 240.87 228.755C261.616 223.835 283.128 226.201 300.814 237.172C318.21 247.962 322.103 275.783 340.676 285.244C350.745 290.348 362.256 288.657 373.196 287.813C398.495 285.864 406.378 307.724 428.954 308.618C434.682 308.835 440.453 306.683 446.27 305.911C452.292 305.11 462.219 307.662 460.311 313.623" stroke="#FF4B1C" stroke-width="0.197266" stroke-linecap="round" stroke-linejoin="round"/>
<path d="M-193.698 95.6954C-183.288 116.168 -167.402 131.866 -147.932 140.988C-134.177 147.439 -118.136 150.426 -102.581 148.965C-88.7703 147.647 -75.1329 143.131 -62.7149 135.1C-40.3939 120.595 -21.6942 104.469 1.49266 96.6708C9.34053 94.0138 17.7919 92.4047 26.9979 91.9236C55.6184 90.4357 85.9917 101.084 101.573 125.394C111.307 140.577 116.04 159.114 121.46 177.66C124.099 186.702 127.027 195.133 130.522 202.699C142.466 228.61 162.463 242.286 191.636 243.868C209.235 244.823 227.733 237.348 245.903 232.908C268.931 227.302 292.961 230.223 312.657 242.403C328.798 252.384 333.355 277.367 350.539 286.543C359.835 291.476 370.371 290.611 380.447 290.298C403.464 289.596 411.641 308.812 432.53 309.357C437.852 309.481 443.222 307.525 448.635 306.691C454.248 305.82 463.218 307.746 462.052 312.51" stroke="#FF4B1C" stroke-width="0.197266" stroke-linecap="round" stroke-linejoin="round"/>
<path d="M-194.321 105.136C-183.978 125.506 -167.547 140.334 -147.775 148.48C-133.868 154.21 -117.892 156.48 -102.542 154.55C-88.8898 152.807 -75.4717 148.117 -63.1075 140.378C-41.0173 126.473 -22.0495 110.86 0.838086 102.734C8.62429 99.9524 16.9765 98.1303 25.9753 97.3413C54.5176 94.8203 84.7637 103.721 101.408 126.943C111.921 141.618 117.32 159.999 122.988 178.582C125.714 187.514 128.626 195.982 132.028 203.688C143.549 229.782 163.978 239.819 191.083 248.729C209.683 254.842 230.893 242.072 250.932 237.083C276.234 230.796 302.788 234.275 324.49 247.654C339.375 256.833 344.587 278.977 360.39 287.87C368.905 292.63 378.469 292.576 387.685 292.81C408.417 293.338 416.9 309.929 436.099 310.134C441.015 310.171 445.975 308.409 450.988 307.499C456.193 306.549 464.197 307.855 463.786 311.434" stroke="#FF4B1C" stroke-width="0.197266" stroke-linecap="round" stroke-linejoin="round"/>
<path d="M-194.949 114.586C-184.677 134.845 -167.691 148.822 -147.621 155.974C-133.561 160.984 -117.65 162.535 -102.504 160.131C-89.0119 157.969 -75.8209 153.103 -63.5089 145.65C-41.6494 132.344 -22.4136 117.244 0.174819 108.791C7.89936 105.884 16.1524 103.849 24.9456 102.744C53.4147 99.1672 83.5471 106.331 101.235 128.477C112.539 142.63 118.576 160.874 124.511 179.481C127.323 188.312 130.213 196.806 133.53 204.647C144.637 230.917 164.148 244.283 190.534 253.561C210.882 260.724 234.062 246.777 255.965 241.229C283.541 234.261 312.618 238.305 336.334 252.878C349.955 261.254 355.839 280.562 370.254 289.162C377.997 293.751 386.575 294.498 394.929 295.285C413.363 297.025 422.156 311.009 439.665 310.872C444.168 310.823 448.727 309.256 453.338 308.277C458.133 307.256 465.18 307.936 465.51 310.319" stroke="#FF4B1C" stroke-width="0.197266" stroke-linecap="round" stroke-linejoin="round"/>
<path d="M-195.573 124.032C-185.369 144.189 -167.832 157.306 -147.464 163.464C-133.254 167.762 -117.405 168.587 -102.458 165.717C-89.1252 163.137 -76.152 158.089 -63.9015 150.927C-42.2727 138.221 -22.7705 123.641 -0.472081 114.855C7.19079 111.823 15.3463 109.567 23.9383 108.164C52.3221 103.512 82.3562 108.942 101.085 130.027C113.188 143.661 119.828 161.776 126.055 180.405C128.935 189.137 131.845 197.652 135.045 205.628C145.79 232.062 164.128 249.006 189.997 258.423C212.156 266.489 237.237 251.503 261.002 245.403C290.853 237.748 322.443 242.37 348.172 258.137C360.538 265.711 367.086 282.174 380.11 290.496C387.073 294.912 394.675 296.453 402.173 297.805C418.309 300.716 427.413 312.132 443.234 311.647C447.331 311.512 451.482 310.131 455.689 309.09C460.068 307.998 466.166 308.053 467.242 309.249" stroke="#FF4B1C" stroke-width="0.197266" stroke-linecap="round" stroke-linejoin="round"/>
<path d="M-196.191 133.475C-186.053 153.53 -167.984 165.83 -147.301 170.95C-132.945 174.559 -117.155 174.635 -102.413 171.297C-89.24 168.3 -76.4922 163.068 -64.2956 156.198C-42.8898 144.094 -23.1272 130.025 -1.128 120.912C6.47321 117.755 14.5328 115.27 22.916 113.567C51.2116 107.816 81.1688 111.525 100.912 131.559C113.824 144.66 121.092 162.644 127.576 181.31C130.549 189.942 133.428 198.491 136.544 206.601C146.866 233.218 163.903 253.897 189.437 263.268C213.478 272.091 240.397 256.212 266.024 249.562C298.149 241.225 332.251 246.426 360.005 263.374C371.105 270.152 378.318 283.77 389.963 291.8C396.153 296.045 402.776 298.356 409.413 300.294C423.26 304.339 432.666 313.225 446.805 312.401C450.497 312.172 454.237 310.993 458.044 309.876C462.013 308.713 467.155 308.142 468.972 308.142" stroke="#FF4B1C" stroke-width="0.197266" stroke-linecap="round" stroke-linejoin="round"/>
<path d="M-196.817 142.925C-186.753 162.876 -168.124 174.31 -147.145 178.445C-132.637 181.332 -116.911 180.691 -102.367 176.887C-89.3545 173.472 -76.8262 168.065 -64.6894 161.479C-43.5144 149.974 -23.4838 136.419 -1.78535 126.986C5.75419 123.703 13.7102 120.989 21.8922 118.987C50.0892 112.111 79.9832 114.109 100.745 133.11C114.462 145.66 122.362 163.537 129.105 182.226C132.165 190.749 135.029 199.334 138.052 207.577C147.951 234.377 163.061 260.236 188.894 268.117C215.345 276.184 243.565 260.932 271.055 253.723C305.461 244.708 342.021 250.556 371.839 268.611C381.671 274.61 389.56 285.369 399.816 293.114C405.226 297.186 410.881 300.245 416.653 302.793C428.239 307.913 437.927 314.329 450.368 313.163C453.646 312.846 456.986 311.855 460.39 310.677C463.951 309.436 468.134 308.246 470.699 307.059" stroke="#FF4B1C" stroke-width="0.197266" stroke-linecap="round" stroke-linejoin="round"/>
<path d="M-197.442 152.375C-180.556 185.902 -137.463 192.969 -102.321 182.477C-67.1789 171.985 -36.1938 148.456 -2.4328 133.053C31.3266 117.659 72.6114 111.561 100.587 134.663C121.657 152.055 130.093 181.572 139.575 208.564C149.049 235.554 162.952 263.984 188.366 272.977C216.371 282.894 246.756 265.658 276.109 257.897C312.79 248.194 351.872 254.614 383.704 273.864C410.168 289.866 436.398 331.962 472.459 305.975" stroke="#FF4B1C" stroke-width="0.197266" stroke-linecap="round" stroke-linejoin="round"/>
<path d="M-197.682 157.983C-178.363 193.64 -131.821 201.172 -93.9614 188.845C-60.1596 177.837 -30.1055 155.152 2.75318 140.648C36.5938 125.702 77.0278 122.155 104.02 145.969C124.501 164.182 133.533 193.072 144.935 217.38C156.22 241.447 170.522 265.863 195.553 272.726C222.991 280.249 252.775 263.391 281.73 256.378C317.342 247.754 354.74 255.02 385.424 273.979C411.094 289.877 439.711 333.717 474.285 305.591" stroke="#FF4B1C" stroke-width="0.197266" stroke-linecap="round" stroke-linejoin="round"/>
<path d="M-197.923 163.591C-176.172 201.379 -126.178 209.439 -85.5949 195.213C-53.0966 183.819 -23.9923 161.878 7.95525 148.237C41.8893 133.76 81.5536 132.643 107.47 157.271C127.43 176.238 136.911 204.487 150.31 226.199C163.329 247.286 178.082 267.747 202.755 272.477C229.613 277.629 258.813 261.111 287.366 254.862C321.905 247.301 357.623 255.428 387.154 274.087C412.038 289.876 443.033 335.459 476.118 305.21" stroke="#FF4B1C" stroke-width="0.197266" stroke-linecap="round" stroke-linejoin="round"/>
<path d="M-198.169 169.198C-173.985 209.116 -120.529 217.772 -77.2393 201.572C-46.0256 189.89 -17.8901 168.593 13.1447 155.825C47.1797 141.817 86.003 143.204 110.912 168.579C130.313 188.341 140.173 215.853 155.688 235.018C170.32 253.092 185.634 269.646 209.959 272.229C236.22 275.014 264.846 258.823 293.004 253.347C326.457 246.837 360.509 255.837 388.893 274.198C412.99 289.885 446.364 337.211 477.969 304.832" stroke="#FF4B1C" stroke-width="0.197266" stroke-linecap="round" stroke-linejoin="round"/>
<path d="M-198.409 174.805C-171.792 216.853 -114.853 226.189 -68.8719 207.94C-38.9206 196.055 -11.7655 175.343 18.3399 163.411C52.4804 149.89 90.4489 153.77 114.355 179.878C133.192 200.449 143.3 227.205 161.056 243.834C177.154 258.912 193.165 271.554 217.155 271.97C242.813 272.418 270.859 256.513 298.642 251.823C331.011 246.348 363.395 256.236 390.633 274.299C413.944 289.876 449.696 338.945 479.813 304.435" stroke="#FF4B1C" stroke-width="0.197266" stroke-linecap="round" stroke-linejoin="round"/>
<path d="M-198.649 180.413C-169.607 224.591 -109.151 234.677 -60.5122 214.308C-31.7964 202.282 -5.65031 182.102 23.5335 171.008C57.7839 157.99 94.8899 164.361 117.795 191.187C136.06 212.573 146.279 238.616 166.424 252.652C183.862 264.795 200.69 273.496 224.358 271.722C249.401 269.847 276.878 254.206 304.278 250.308C335.559 245.852 366.279 256.645 392.369 274.418C414.894 289.885 453.023 340.704 481.653 304.063" stroke="#FF4B1C" stroke-width="0.197266" stroke-linecap="round" stroke-linejoin="round"/>
<path d="M-198.889 186.03C-167.414 232.339 -103.421 243.268 -52.1447 220.686C-24.6433 208.572 0.486493 188.882 28.7349 178.614C63.0996 166.117 99.3219 174.967 121.242 202.513C138.925 224.721 149.155 250.182 171.804 261.497C190.477 270.827 208.224 275.48 231.565 271.5C255.987 267.333 282.906 251.91 309.919 248.818C340.1 245.362 369.201 257.031 394.104 274.553C415.869 289.867 456.351 342.472 483.493 303.7" stroke="#FF4B1C" stroke-width="0.197266" stroke-linecap="round" stroke-linejoin="round"/>
<path d="M-199.129 191.641C-165.221 240.081 -97.6379 251.944 -43.7835 227.049C-17.4724 214.884 6.62737 195.672 33.9239 186.197C68.4166 174.231 103.73 185.562 124.679 213.807C141.768 236.851 151.969 261.882 177.168 270.301C197.04 276.947 215.742 277.455 238.755 271.237C262.567 264.803 288.906 249.546 315.543 247.287C344.628 244.817 372.073 257.424 395.829 274.648C416.807 289.86 459.668 344.208 485.329 303.306" stroke="#FF4B1C" stroke-width="0.197266" stroke-linecap="round" stroke-linejoin="round"/>
<path d="M-199.37 197.247C-163.03 247.816 -91.7987 260.722 -35.4171 233.416C-10.2737 221.244 12.7719 202.474 39.1242 193.791C73.7477 182.381 108.143 196.168 128.126 225.114C144.615 248.991 155.405 271.305 182.542 279.117C203.187 285.062 223.284 279.46 245.957 270.985C269.17 262.304 294.919 247.187 321.179 245.769C349.163 244.259 374.922 257.879 397.566 274.756C417.725 289.899 462.997 345.949 487.17 302.923" stroke="#FF4B1C" stroke-width="0.197266" stroke-linecap="round" stroke-linejoin="round"/>
<path d="M-199.615 202.856C-160.842 255.557 -85.9068 269.613 -27.0628 239.785C-3.07507 227.625 18.9087 209.295 44.3124 201.389C79.0695 190.559 112.532 206.791 131.561 236.424C147.433 261.139 157.707 285.785 187.903 287.944C210.274 289.546 230.839 281.499 253.145 270.745C275.772 259.835 300.918 244.806 326.802 244.253C353.692 243.68 377.793 258.287 399.283 274.864C418.655 289.905 466.306 347.698 488.992 302.534" stroke="#FF4B1C" stroke-width="0.197266" stroke-linecap="round" stroke-linejoin="round"/>
<path d="M-199.856 208.464C-158.652 263.303 -79.9318 278.623 -18.6965 246.154C4.15376 234.035 25.062 216.134 49.5065 208.977C84.4062 198.762 116.856 217.437 135.001 247.732C150.208 273.323 160.697 297.895 193.278 296.763C217.01 295.94 238.423 283.533 260.355 270.491C282.425 257.366 306.942 242.396 332.455 242.734C358.245 243.081 380.692 258.692 401.035 274.978C419.622 289.91 469.643 349.444 490.848 302.158" stroke="#FF4B1C" stroke-width="0.197266" stroke-linecap="round" stroke-linejoin="round"/>
<path d="M-200.096 214.071C-156.467 271.039 -73.8568 287.773 -10.3345 252.513C11.4073 240.447 31.2077 222.977 54.7024 216.565C89.755 206.99 121.282 228.024 138.444 259.031C153.061 285.443 163.785 310.04 198.647 305.579C223.815 302.354 246.023 285.576 267.551 270.24C289.079 254.903 312.967 239.953 338.084 241.215C362.789 242.454 383.569 259.098 402.766 275.086C420.565 289.915 472.965 351.192 492.689 301.777" stroke="#FF4B1C" stroke-width="0.197266" stroke-linecap="round" stroke-linejoin="round"/>
<path d="M-208.489 204.335C-183.209 236.905 -144.08 257.543 -104.083 260.314C-73.6434 262.42 -42.391 256.774 -15.3516 245.331C-8.85337 242.581 -2.55591 239.492 3.62734 236.452C17.9078 229.422 31.5289 222.253 47.0132 219.912C51.6365 219.216 56.2038 219.012 60.7119 219.315C88.5662 221.228 114.148 240.918 130.437 266.082C134.67 272.579 138.709 278.859 142.929 284.544C154.827 300.592 168.352 311.813 193.948 308.19C211.524 305.65 227.81 297.011 243.45 286.842C250.493 282.271 257.403 277.382 264.25 272.601C286.202 257.266 310.234 242.09 335.389 241.655C342.327 241.56 348.981 242.589 355.411 244.371C366.021 247.324 376.007 252.402 385.668 258.565C391.068 262.002 396.272 265.911 401.313 269.985C408.98 276.183 421.358 289.915 434.662 301.009C454.984 317.964 478.294 329.866 491.55 302.169" stroke="#FF4B1C" stroke-width="0.199219" stroke-linecap="round" stroke-linejoin="round"/>
<path d="M-216.89 194.588C-191.306 227.118 -150.77 248.949 -110.406 250.47C-79.1294 251.648 -47.3355 245.94 -20.3655 238.124C-13.9428 236.262 -7.75808 234.239 -1.73281 232.325C12.0615 227.939 24.7355 223.435 39.3256 223.243C43.6701 223.184 47.9873 223.519 52.2672 224.335C78.877 229.41 104.546 249.519 122.431 273.123C127.078 279.251 131.633 285.056 136.303 290.284C149.358 304.904 163.85 314.808 189.249 310.791C207.043 307.977 223.669 299.321 239.662 289.187C246.863 284.625 253.946 279.749 260.956 274.954C283.323 259.627 307.508 244.147 332.711 242.081C339.628 241.517 346.288 242.019 352.75 243.16C363.472 245.056 373.643 248.877 383.624 254.13C389.288 257.111 394.705 260.809 399.883 264.88C408.137 271.37 420.292 285.551 433.068 297.022C452.837 314.772 475.77 328.236 490.422 302.571" stroke="#FF4B1C" stroke-width="0.203125" stroke-linecap="round" stroke-linejoin="round"/>
<path d="M-225.281 184.853C-199.392 217.343 -157.447 240.345 -116.72 240.645C-84.6039 240.88 -52.3222 235.099 -25.3728 230.944C-19.0486 229.967 -12.9783 229.016 -7.09571 228.233C6.14521 226.467 17.9332 224.642 31.6369 226.599C35.6949 227.176 39.7698 228.053 43.823 229.373C69.2004 237.63 94.9991 258.11 114.424 280.182C119.493 285.943 124.543 291.268 129.676 296.042C143.865 309.236 159.351 317.773 184.55 313.41C202.569 310.291 219.526 301.658 235.874 291.551C243.241 286.999 250.481 282.141 257.665 277.318C280.448 261.991 304.774 246.261 330.035 242.518C336.928 241.501 343.598 241.461 350.083 241.958C360.918 242.789 371.293 245.34 381.568 249.695C387.514 252.216 393.121 255.697 398.441 259.774C407.275 266.554 419.213 281.194 431.472 293.028C450.687 311.582 473.245 326.591 489.294 302.958" stroke="#FF4B1C" stroke-width="0.205078" stroke-linecap="round" stroke-linejoin="round"/>
<path d="M-233.675 175.115C-207.482 207.566 -164.128 231.713 -123.043 230.809C-90.0841 230.085 -57.3726 224.202 -30.3872 223.746C-24.16 223.644 -18.2392 223.742 -12.4565 224.114C0.177791 224.918 11.1193 225.812 23.9563 229.939C27.7279 231.152 31.5587 232.577 35.3869 234.394C59.5331 245.865 85.4774 266.68 106.434 287.227C111.926 292.613 117.466 297.473 123.065 301.785C138.372 313.558 154.869 320.716 179.868 316.014C198.103 312.589 215.4 303.979 232.102 293.899C239.626 289.365 247.041 284.511 254.388 279.675C277.587 264.348 302.06 248.376 327.371 242.956C334.24 241.485 340.922 240.895 347.437 240.758C358.394 240.519 368.973 241.8 379.531 245.27C385.76 247.322 391.562 250.597 397.018 254.679C406.442 261.736 418.151 276.855 429.892 289.052C448.544 308.415 470.743 324.974 488.181 303.371" stroke="#FF4B1C" stroke-width="0.207031" stroke-linecap="round" stroke-linejoin="round"/>
<path d="M-242.075 165.368C-215.569 197.78 -170.813 223.057 -129.366 220.972C-95.5684 219.273 -62.4388 213.23 -35.4091 216.545C-29.2893 217.293 -23.5163 218.432 -17.8246 219.994C-5.83452 223.279 4.3013 226.964 16.2623 233.268C19.7491 235.109 23.3403 237.1 26.9282 239.411C49.8443 254.128 75.9344 275.238 98.4144 294.257C104.338 299.27 110.352 303.67 116.428 307.507C132.831 317.878 150.354 323.628 175.158 318.597C193.612 314.858 211.248 306.272 228.302 296.234C235.991 291.71 243.57 286.875 251.084 282.01C274.706 266.692 299.317 250.478 324.674 243.362C331.519 241.438 338.221 240.3 344.76 239.519C355.832 238.2 366.627 238.198 377.462 240.807C383.978 242.375 389.974 245.45 395.556 249.542C405.57 256.876 417.031 272.487 428.268 285.026C446.345 305.213 468.19 323.297 487.025 303.726" stroke="#FF4B1C" stroke-width="0.210938" stroke-linecap="round" stroke-linejoin="round"/>
<path d="M-250.468 155.632C-223.657 188.005 -177.494 214.395 -135.68 211.139C-101.031 208.442 -67.4986 202.197 -40.4163 209.357C-34.4099 210.946 -28.7706 213.097 -23.1857 215.885C-11.8127 221.561 -2.50478 228.105 8.57377 236.616C11.7774 239.078 15.1181 241.648 18.4842 244.44C40.1485 262.431 66.4156 283.802 90.4083 301.308C96.7632 305.948 103.249 309.895 109.801 313.256C127.298 322.242 145.852 326.56 170.46 321.207C189.126 317.145 207.106 308.599 224.514 298.588C232.362 294.074 240.105 289.258 247.791 284.374C271.829 269.055 296.593 252.617 321.997 243.798C328.823 241.429 335.533 239.725 342.1 238.318C353.296 235.92 364.309 234.62 375.413 236.372C382.224 237.451 388.413 240.335 394.121 244.437C404.725 252.048 415.945 268.153 426.676 281.041C444.178 302.058 465.676 321.671 485.901 304.122" stroke="#FF4B1C" stroke-width="0.212891" stroke-linecap="round" stroke-linejoin="round"/>
<path d="M-258.869 145.887C-231.755 178.227 -184.179 205.7 -142.012 201.302C-106.528 197.606 -72.5371 191.089 -45.4395 202.158C-39.528 204.575 -34.0115 207.725 -28.5552 211.767C-17.7343 219.791 -9.30074 229.225 0.878404 239.947C3.80649 243.031 6.8907 246.171 10.0317 249.46C30.4256 270.736 56.8899 292.35 82.3938 308.35C89.1815 312.609 96.1294 316.109 103.167 318.996C121.744 326.617 141.334 329.481 165.753 323.809C184.64 319.425 202.948 310.916 220.719 300.934C228.731 296.438 236.641 291.625 244.492 286.72C268.946 271.401 293.859 254.746 319.311 244.225C326.111 241.41 332.836 239.141 339.431 237.107C350.739 233.612 361.978 231.015 373.361 231.938C380.462 232.517 386.842 235.217 392.683 239.332C403.887 247.213 414.842 263.815 425.076 277.046C441.985 298.899 463.147 320.025 484.775 304.518" stroke="#FF4B1C" stroke-width="0.214844" stroke-linecap="round" stroke-linejoin="round"/>
<path d="M-267.261 136.148C-239.842 168.449 -190.868 196.994 -148.327 191.474C-112.002 186.754 -77.5106 179.951 -50.4475 194.975C-44.6276 198.205 -39.2033 202.36 -33.9095 207.664C-23.5897 218.024 -16.0661 230.363 -6.80332 243.301C-4.15076 247.007 -1.33399 250.732 1.59452 254.496C20.6841 279.066 47.3811 300.905 74.3945 315.407C81.6149 319.285 89.0299 322.356 96.5473 324.752C116.202 331.024 136.834 332.403 161.062 326.426C180.162 321.711 198.814 313.243 216.938 303.295C225.108 298.809 233.183 294.015 241.206 289.089C266.075 273.778 291.155 256.902 316.633 244.665C323.414 241.407 330.139 238.569 336.764 235.902C348.182 231.317 359.651 227.4 371.303 227.507C378.697 227.572 385.265 230.103 391.239 234.231C403.042 242.382 413.729 259.496 423.476 273.064C439.781 295.766 460.624 318.402 483.643 304.917" stroke="#FF4B1C" stroke-width="0.21875" stroke-linecap="round" stroke-linejoin="round"/>
<path d="M-275.654 126.412C-247.931 158.674 -197.556 188.282 -154.643 181.64C-117.483 175.889 -82.4317 168.787 -55.4615 187.778C-49.718 191.824 -44.3765 196.979 -39.2791 203.554C-29.4069 216.261 -22.8392 231.495 -14.4988 246.64C-12.1201 250.96 -9.57081 255.269 -6.85642 259.516C10.9135 287.378 37.8694 309.431 66.389 322.45C74.0423 325.947 81.9243 328.588 89.9218 330.494C110.66 335.425 132.329 335.311 156.363 329.036C175.67 323.989 194.671 315.571 213.15 305.65C221.486 301.175 229.727 296.391 237.914 291.445C263.207 276.135 288.435 259.051 313.956 245.094C320.718 241.399 327.446 237.977 334.105 234.693C345.634 229.011 357.319 223.771 369.255 223.066C376.933 222.614 383.704 224.98 389.805 229.118C402.201 237.531 412.619 255.164 421.886 269.064C437.58 292.613 458.105 316.758 482.52 305.305" stroke="#FF4B1C" stroke-width="0.220703" stroke-linecap="round" stroke-linejoin="round"/>
<path d="M-284.052 116.668C-256.024 148.889 -204.269 179.47 -160.971 171.804C-122.999 164.935 -87.3172 157.615 -60.4832 180.587C-54.8067 185.444 -49.5453 191.622 -44.6471 199.444C-35.1967 214.527 -29.5597 232.614 -22.1942 249.986C-20.0742 254.924 -17.8153 259.812 -15.3089 264.552C1.1244 295.709 28.3582 317.925 58.3744 329.507C66.4729 332.602 74.808 334.843 83.2794 336.248C105.112 339.866 127.797 338.197 151.648 331.652C171.16 326.239 190.515 317.896 209.346 308.009C217.839 303.551 226.253 298.78 234.605 293.813C260.315 278.503 285.731 261.25 311.26 245.542C318.01 241.412 324.728 237.396 331.427 233.504C343.05 226.697 354.97 220.154 367.186 218.651C375.143 217.674 382.127 219.87 388.35 224.033C401.36 232.688 411.487 250.86 420.268 265.097C435.332 289.505 455.565 315.142 481.369 305.719" stroke="#FF4B1C" stroke-width="0.224609" stroke-linecap="round" stroke-linejoin="round"/>
<path d="M-292.447 106.928C-264.107 139.111 -210.954 170.811 -167.288 161.967C-120.301 152.455 -76.9718 143.236 -50.001 195.325C-38.3766 217.783 -34.0752 245.986 -23.7458 269.571C-4.58855 313.31 34.6114 337.749 76.6619 341.979C118.712 346.209 163.379 332.021 205.56 310.344C247.748 288.669 288.074 259.621 328.762 232.274C340.493 224.386 352.619 216.485 365.138 214.198C390.991 209.468 406.473 239.712 418.679 261.084C433.105 286.351 453.046 313.487 480.247 306.096" stroke="#FF4B1C" stroke-width="0.226562" stroke-linecap="round" stroke-linejoin="round"/>
</g>
<defs>
<clipPath id="clip0_935_4631">
<rect width="809.3" height="263.887" fill="white" transform="translate(-270.377 0.224609) rotate(11.9248)"/>
</clipPath>
</defs>
</svg>
