<svg width="156" height="100" viewBox="0 0 156 100" fill="none" xmlns="http://www.w3.org/2000/svg">
<rect x="14.75" y="9" width="141" height="82" rx="2" fill="#FF4B1C"/>
<rect x="16.75" y="11" width="137" height="78" rx="1.6" stroke="#1C1C1C" stroke-linejoin="round"/>
<rect x="26.25" y="23" width="80" height="46" rx="2" stroke="black" stroke-opacity="0.2" stroke-linejoin="round"/>
<path d="M2.25 1H15.25V99" stroke="#FF4B1C" stroke-width="2" stroke-linecap="round"/>
<rect x="26.25" y="72" width="80" height="5" fill="black" fill-opacity="0.3"/>
<path d="M58.634 43.84C58.4187 43.4433 58.107 43.143 57.699 42.939C57.3024 42.7237 56.832 42.616 56.288 42.616C55.3474 42.616 54.5937 42.9277 54.027 43.551C53.4604 44.163 53.177 44.9847 53.177 46.016C53.177 47.1153 53.4717 47.9767 54.061 48.6C54.6617 49.212 55.4834 49.518 56.526 49.518C57.24 49.518 57.8407 49.3367 58.328 48.974C58.8267 48.6113 59.1894 48.09 59.416 47.41H55.727V45.268H62.051V47.971C61.8357 48.6963 61.4674 49.3707 60.946 49.994C60.436 50.6173 59.7844 51.1217 58.991 51.507C58.1977 51.8923 57.3024 52.085 56.305 52.085C55.1264 52.085 54.0724 51.83 53.143 51.32C52.225 50.7987 51.5054 50.079 50.984 49.161C50.474 48.243 50.219 47.1947 50.219 46.016C50.219 44.8373 50.474 43.789 50.984 42.871C51.5054 41.9417 52.225 41.222 53.143 40.712C54.061 40.1907 55.1094 39.93 56.288 39.93C57.716 39.93 58.9174 40.2757 59.892 40.967C60.878 41.6583 61.5297 42.616 61.847 43.84H58.634ZM72.0762 43.908C72.0762 44.5993 71.9176 45.234 71.6002 45.812C71.2829 46.3787 70.7956 46.8377 70.1382 47.189C69.4809 47.5403 68.6649 47.716 67.6902 47.716H65.8882V52H62.9812V40.066H67.6902C68.6422 40.066 69.4469 40.2303 70.1042 40.559C70.7616 40.8877 71.2546 41.341 71.5832 41.919C71.9119 42.497 72.0762 43.16 72.0762 43.908ZM67.4692 45.404C68.0246 45.404 68.4382 45.2737 68.7102 45.013C68.9822 44.7523 69.1182 44.384 69.1182 43.908C69.1182 43.432 68.9822 43.0637 68.7102 42.803C68.4382 42.5423 68.0246 42.412 67.4692 42.412H65.8882V45.404H67.4692ZM75.7656 40.066V47.206C75.7656 47.92 75.9413 48.4697 76.2926 48.855C76.644 49.2403 77.1596 49.433 77.8396 49.433C78.5196 49.433 79.041 49.2403 79.4036 48.855C79.7663 48.4697 79.9476 47.92 79.9476 47.206V40.066H82.8546V47.189C82.8546 48.2543 82.628 49.1553 82.1746 49.892C81.7213 50.6287 81.1093 51.184 80.3386 51.558C79.5793 51.932 78.7293 52.119 77.7886 52.119C76.848 52.119 76.0036 51.9377 75.2556 51.575C74.519 51.201 73.9353 50.6457 73.5046 49.909C73.074 49.161 72.8586 48.2543 72.8586 47.189V40.066H75.7656Z" fill="black"/>
<path d="M4.25 22C4.25 21.1716 4.92157 20.5 5.75 20.5H15.25V42.5H5.75C4.92157 42.5 4.25 41.8284 4.25 41V22Z" fill="#FF4B1C" stroke="#FF4B1C"/>
<path d="M4.25 54C4.25 53.1716 4.92157 52.5 5.75 52.5H15.25V74.5H5.75C4.92157 74.5 4.25 73.8284 4.25 73V54Z" fill="#FF4B1C" stroke="#FF4B1C"/>
<g clip-path="url(#clip0_525_3083)">
<circle cx="132.25" cy="33" r="10" fill="black" fill-opacity="0.3"/>
<circle cx="132.25" cy="33" r="3" fill="#FF4B1C"/>
</g>
<g clip-path="url(#clip1_525_3083)">
<circle cx="132.25" cy="67" r="10" fill="black" fill-opacity="0.3"/>
<circle cx="132.25" cy="67" r="3" fill="#FF4B1C"/>
</g>
<path d="M14.75 13.5H4.75" stroke="#FF4B1C"/>
<path d="M14.75 83.5H4.75" stroke="#FF4B1C"/>
<defs>
<clipPath id="clip0_525_3083">
<rect width="20" height="20" fill="white" transform="translate(122.25 23)"/>
</clipPath>
<clipPath id="clip1_525_3083">
<rect width="20" height="20" fill="white" transform="translate(122.25 57)"/>
</clipPath>
</defs>
</svg>
