<svg width="85" height="155" viewBox="0 0 85 155" fill="none" xmlns="http://www.w3.org/2000/svg">
<rect x="0.75" width="84" height="155" rx="4" fill="#FF4B1C"/>
<g clip-path="url(#clip0_525_3134)">
<rect x="2.75" y="2" width="80" height="151" rx="4" fill="#FF4B1C"/>
<path d="M34.4571 4L33.9571 3.5H51.0429L50.5429 4H34.4571Z" stroke="#1C1C1C" stroke-linejoin="round"/>
<path d="M6.02224 149.794L6.29068 142.871L12.152 146.565L6.02224 149.794Z" fill="black"/>
<path d="M80.2141 4L80.2141 10.9282L74.2141 7.4641L80.2141 4Z" fill="black"/>
<path d="M78.9761 6.10719L7.51987 148.393" stroke="black" stroke-linejoin="round"/>
<rect x="27.75" y="68" width="33" height="21" fill="#FF4B1C"/>
<path d="M26.8429 82.66V80.176L32.5309 72.04H35.9689V79.996H37.4449V82.66H35.9689V85H32.8909V82.66H26.8429ZM33.1069 75.424L30.0829 79.996H33.1069V75.424ZM39.9785 85.144C39.4385 85.144 38.9945 84.988 38.6465 84.676C38.3105 84.352 38.1425 83.956 38.1425 83.488C38.1425 83.008 38.3105 82.606 38.6465 82.282C38.9945 81.958 39.4385 81.796 39.9785 81.796C40.5065 81.796 40.9385 81.958 41.2745 82.282C41.6225 82.606 41.7965 83.008 41.7965 83.488C41.7965 83.956 41.6225 84.352 41.2745 84.676C40.9385 84.988 40.5065 85.144 39.9785 85.144ZM50.9806 74.29L46.3006 85H43.0786L47.8846 74.632H42.3046V72.022H50.9806V74.29ZM56.7074 72.364H59.8574L57.8414 77.188H55.7714L56.7074 72.364ZM52.6034 72.364H55.7534L53.7374 77.188H51.6674L52.6034 72.364Z" fill="black"/>
</g>
<rect x="3.25" y="2.5" width="79" height="150" rx="3.5" stroke="#1C1C1C"/>
<defs>
<clipPath id="clip0_525_3134">
<rect x="2.75" y="2" width="80" height="151" rx="4" fill="white"/>
</clipPath>
</defs>
</svg>
