<svg width="112" height="110" viewBox="0 0 112 110" fill="none" xmlns="http://www.w3.org/2000/svg">
<rect x="1.17188" width="110" height="110" rx="6.76923" fill="#FF4B1C"/>
<path d="M27.1445 70.4612C27.5629 65.8473 28.9824 61.6101 31.4031 57.7496C33.8237 53.8911 37.0486 50.8247 41.0776 48.5502L36.3195 40.3256C36.0535 39.9073 35.9865 39.493 36.1185 39.0828C36.2525 38.6726 36.5338 38.3405 36.9623 38.0867C37.3684 37.8714 37.7675 37.8308 38.1594 37.9648C38.5493 38.0968 38.8732 38.3568 39.1311 38.7447L43.8984 47.015C47.5944 45.4635 51.461 44.6877 55.4981 44.6877C59.5353 44.6877 63.4019 45.4635 67.0979 47.015L71.8651 38.7447C72.123 38.3588 72.448 38.0989 72.8399 37.9648C73.2298 37.8308 73.6268 37.8714 74.0309 38.0867C74.4615 38.3405 74.7437 38.6726 74.8778 39.0828C75.0098 39.493 74.9427 39.9073 74.6767 40.3256L69.9217 48.5502C73.9487 50.8247 77.1725 53.8911 79.5932 57.7496C82.0139 61.6101 83.4334 65.8463 83.8517 70.4582L27.1445 70.4612ZM42.619 63.3698C43.5227 63.3698 44.2842 63.058 44.9036 62.4346C45.523 61.8091 45.8327 61.0445 45.8327 60.1408C45.8327 59.2372 45.5199 58.4756 44.8945 57.8562C44.269 57.2368 43.5054 56.9271 42.6038 56.9271C41.7021 56.9271 40.9406 57.2399 40.3191 57.8654C39.6977 58.4908 39.387 59.2544 39.387 60.1561C39.387 61.0618 39.6998 61.8233 40.3252 62.4407C40.9507 63.058 41.7153 63.3677 42.619 63.3698ZM68.3955 63.3698C69.2992 63.3698 70.0608 63.058 70.6802 62.4346C71.2975 61.8091 71.6062 61.0445 71.6062 60.1408C71.6062 59.2372 71.2945 58.4756 70.671 57.8562C70.0476 57.2368 69.283 56.9271 68.3773 56.9271C67.4716 56.9271 66.71 57.2399 66.0927 57.8654C65.4753 58.4908 65.1656 59.2544 65.1636 60.1561C65.1616 61.0577 65.4733 61.8193 66.0988 62.4407C66.7242 63.0621 67.4919 63.3718 68.3955 63.3698Z" fill="black"/>
</svg>
