<svg width="121" height="120" viewBox="0 0 121 120" fill="none" xmlns="http://www.w3.org/2000/svg">
<path d="M104.011 51.379V42.7584C104.011 37.9973 100.137 34.1377 95.3586 34.1377H21.816C17.0377 34.1375 13.1641 37.9971 13.1641 42.7582V77.2412C13.1641 82.0022 17.0377 85.8618 21.816 85.8618H95.3584C100.137 85.8618 104.01 82.0022 104.01 77.2412V68.6205C106.4 68.6205 108.336 66.6906 108.336 64.3101V55.6894C108.337 53.3087 106.4 51.379 104.011 51.379Z" fill="#FF4B1C"/>
<path d="M102.068 51.9999V52.4999H102.568C104.623 52.4999 106.25 54.0876 106.25 56V64C106.25 65.9123 104.623 67.5001 102.568 67.5001H102.068V68.0001V76C102.068 80.1214 98.5686 83.5 94.2046 83.5H23.1136C18.7495 83.5 15.25 80.1214 15.25 76V43.9998C15.25 39.8784 18.7495 36.4998 23.1136 36.5H23.1136H94.2047C98.5688 36.5 102.068 39.8786 102.068 44V51.9999Z" stroke="#1C1C1C"/>
<path d="M68.5151 55.0972C70.3079 55.0972 71.251 57.1698 70.083 58.4957L56.6266 73.6089C56.3828 73.8472 56.0131 73.985 55.6629 73.9866C55.1646 73.9888 54.7754 73.727 54.7776 73.287C54.7782 73.181 54.8055 73.064 54.8651 72.9361L58.6956 62.513H52.9693C50.7634 62.513 49.3704 60.2169 50.4438 58.3389L57.0119 46.8418H67.1293L61.9136 55.0972H68.5151Z" fill="black"/>
</svg>
